<svg version="1.1" xmlns="http://www.w3.org/2000/svg" xmlns:xlink="http://www.w3.org/1999/xlink" width="147.76655" height="185.07973" viewBox="0,0,147.76655,185.07973"><g transform="translate(-191.76769,-60.6831)"><g data-paper-data="{&quot;isPaintingLayer&quot;:true}" fill="none" fill-rule="nonzero" stroke="none" stroke-width="none" stroke-linecap="round" stroke-linejoin="miter" stroke-miterlimit="10" stroke-dasharray="" stroke-dashoffset="0" font-family="none" font-weight="none" font-size="none" text-anchor="none" style="mix-blend-mode: normal"><path d="M192.76769,244.44513l0.3177,0.3177" data-paper-data="{&quot;origPos&quot;:null}" id="ID0.03616796713322401" fill="none" stroke="#000000" stroke-width="2"/><g data-paper-data="{&quot;origPos&quot;:null}"><path d="M323.75,61.97784c3.471,-0.006 7.29,1.446 10,3.75c2.306,1.962 4.521,5.173 4.25,8.25c-0.25,2.792 -3.639,4.688 -5.75,6.75c-1.683,1.657 -3.265,5.45 -5.75,5c-3.169,-0.602 -4.417,-4.954 -7,-7c-1.891,-1.5 -6.499,-0.905 -6.5,-3.25c0.124,-3.923 4.4,-6.56 6.75,-9.5c1.176,-1.471 2.11,-3.997 4,-4z" data-paper-data="{&quot;origPos&quot;:null}" id="ID0.8586977859959006" fill="#ff9400" stroke="none" stroke-width="1"/><path d="M316.25,72.22784c3.38,-0.42 6.917,1.42 9.619,3.498c2.144,1.648 4.985,4.497 4.381,7.252c-0.99,4.494 -5.069,8.241 -8.75,11.25c-0.905,0.746 -1.74,-1.381 -2.75,-2c-1.365,-1.13 -2.737,-2.283 -4.369,-3.248c-2.66,-1.575 -6.754,-1.732 -8.131,-4.502c-1.055,-2.133 1.06,-4.606 2.5,-6.25c2.009,-2.581 4.423,-5.621 7.5,-6z" id="ID0.9701001369394362" fill="#b5b5b5" stroke="none" stroke-width="1"/><path d="M307.5,80.47784c0,0 3.879,-5.203 6,-7.75c0.463,-0.568 0.631,-0.99 1.25,-1c2.023,-0.037 4.139,0.118 6,1c2.58,1.227 4.965,3.145 6.75,5.5c1.478,1.68 1.816,4.12 2.75,6.25c0.234,0.532 0.466,-0.068 0.25,0.25c-0.815,1.234 -1.803,2.282 -2.75,3.5c-1.384,1.696 -4.25,5.25 -4.25,5.25" id="ID0.21085595898330212" fill="none" stroke="#000000" stroke-width="2"/><path d="M315.0079,71.47254c0,0 4.1263,-5.7494 6.4737,-8.2631c0.5295,-0.6558 0.9389,-1.4242 1.7368,-1.4737c1.78,-0.1684 3.6506,-0.1337 5.3158,0.6316c2.6937,1.2389 5.3526,2.8295 7.3684,5c1.4769,1.6052 2.1685,3.7526 2.579,5.8421c0.2431,0.6937 -0.38,1.3874 -0.7369,2c-0.7705,1.3231 -1.581,2.6242 -2.5263,3.7368c-1.6379,2.0674 -5.2105,5.7895 -5.2105,5.7895" id="ID0.21085595898330212" fill="none" stroke="#000000" stroke-width="2.10527"/><path d="M317.25,77.47784c0,0 -0.167,-0.062 0,0c0.666,0.25 1.372,0.415 2,0.75c0.632,0.337 1.187,0.808 1.75,1.25c0.604,0.474 1.188,0.978 1.75,1.5c0.604,0.561 1.263,1.085 1.75,1.75c0.44,0.6 0.698,1.32 1,2c0.364,0.819 1,2.5 1,2.5" id="ID0.41866302071139216" fill="none" stroke="#000000" stroke-width="2"/><path d="M247.47493,153.50701c3.40786,-2.37745 8.38092,-7.05399 11.64899,-4.50074c4.66701,3.56565 6.10936,11.5092 4.50074,17.20873c-1.14795,4.06867 -7.38546,4.38002 -11.11949,6.61874c-2.35098,1.2009 -4.76443,2.29273 -7.14824,3.7065c-1.60015,0.94569 -2.90695,2.17518 -4.76549,2.91225c-0.5242,0.2065 -1.9295,1.16172 -1.5885,-0.5295c1.36823,-6.74476 3.63131,-13.34868 5.82449,-19.85622c0.6301,-1.87231 0.97746,-4.36519 2.6475,-5.55974z" id="ID0.8783496841788292" fill="#ffffcc" stroke="none" stroke-width="1"/><path d="M267.5959,128.35579c13.5107,-16.46425 27.09766,-32.97298 40.77145,-49.50819c3.43116,-4.13221 1.6944,-2.91225 3.177,-3.44175c2.0121,-0.79425 4.39484,-0.68835 6.61874,0c2.48865,0.7413 4.81844,2.2239 6.61874,4.23599c1.74735,1.9062 3.3888,4.44779 3.7065,7.14824c0.15885,1.64145 1.00605,0.1059 -2.38275,4.50074c-13.60813,17.04988 -27.76906,33.86784 -41.5657,50.83194c-5.80225,7.13447 -11.4213,14.22235 -17.20873,21.17997c-1.3947,1.87443 -1.24009,2.86036 -2.38275,2.91225c-1.11195,0.03706 -1.50696,-1.68169 -2.38275,-2.38275c-0.89803,-0.718 -1.78018,-1.65627 -2.91225,-1.85325c-1.07488,-0.18638 -2.09046,0.70741 -3.177,0.79425c-1.14584,0.09213 -2.85188,0.69682 -3.44175,-0.26475c-0.73283,-1.20726 0.46172,-3.07639 0.5295,-4.76549c0.10484,-0.78578 0.58351,-1.777 0,-2.6475c-0.56021,-0.73706 -1.82889,-0.45113 -2.6475,-0.79425c-1.17125,-0.50197 -4.86292,0.85885 -3.44175,-1.32375c5.66247,-8.78228 13.35503,-16.40071 20.12097,-24.62172z" data-paper-data="{&quot;origPos&quot;:null}" id="ID0.3507009046152234" fill="#02a252" stroke="#000000" stroke-width="2"/><path d="M312.33859,90.23184l-57.45068,71.74716" id="ID0.26528497599065304" fill="none" stroke="#000000" stroke-width="2"/><path d="M239.26769,178.65823c0,0 0.15144,-0.8885 0.26475,-1.32375c0.41619,-1.59379 0.85038,-3.18759 1.32375,-4.76549c0.32088,-1.06853 0.7233,-2.11376 1.059,-3.177c0.72224,-2.28744 1.45083,-4.58017 2.118,-6.88349c0.30287,-1.04735 0.48079,-2.13282 0.79425,-3.177c0.48079,-1.60226 1.5885,-4.76549 1.5885,-4.76549" id="ID0.8384811817668378" fill="none" stroke="#000000" stroke-width="2"/><path d="M239.53244,179.71723c0,0 0.36747,0.07201 0.5295,0c0.64917,-0.28911 1.25491,-0.67458 1.85325,-1.059c0.63752,-0.40983 1.21573,-0.91392 1.85325,-1.32375c0.59833,-0.38442 1.23373,-0.71059 1.85325,-1.059c2.20166,-1.23797 4.35884,-2.57654 6.61874,-3.7065c1.62556,-0.81331 3.3888,-1.33857 5.03024,-2.118c1.88819,-0.89697 3.71603,-1.92844 5.55974,-2.91225c0.8006,-0.42678 2.38275,-1.32375 2.38275,-1.32375" id="ID0.8209637436084449" fill="none" stroke="#000000" stroke-width="2"/><path d="M244.56268,170.45099c0.68094,0.05824 1.36081,0.36641 1.87125,0.81437c0.56445,0.49667 0.93827,1.16384 1.2528,1.83313c0.20968,0.44796 0.38124,1.04841 0.15885,1.5885c-0.06989,0.29864 -0.35476,0.21392 -0.90015,0.5295c-2.18683,1.2655 -5.25581,4.41179 -6.61874,3.7065c-1.24962,-0.70529 -0.02965,-4.08244 0.26475,-6.08924c0.11967,-0.73918 0.13661,-1.71558 0.79425,-2.118c0.89909,-0.53162 2.1593,-0.35688 3.177,-0.26475z" data-paper-data="{&quot;origPos&quot;:null}" id="ID0.1270556254312396" fill="#000000" stroke="none" stroke-width="1"/></g></g></g></svg>